<svg width="25" height="25" viewBox="0 0 25 25" fill="none" xmlns="http://www.w3.org/2000/svg">
<path d="M11.3961 17.1811C11.2649 17.1813 11.1349 17.1557 11.0135 17.1056C10.8922 17.0555 10.782 16.9819 10.6891 16.8891L6.44714 12.6461C6.35157 12.5539 6.27531 12.4436 6.22282 12.3216C6.17033 12.1997 6.14265 12.0685 6.1414 11.9357C6.14015 11.8029 6.16536 11.6712 6.21556 11.5483C6.26575 11.4254 6.33993 11.3136 6.43375 11.2197C6.52758 11.1257 6.63917 11.0514 6.76203 11.001C6.88489 10.9507 7.01655 10.9253 7.14933 10.9263C7.28211 10.9274 7.41335 10.9549 7.53539 11.0072C7.65743 11.0595 7.76783 11.1356 7.86014 11.2311L11.3951 14.7661L17.7601 8.40307C17.9477 8.21543 18.202 8.10996 18.4673 8.10986C18.7326 8.10977 18.987 8.21506 19.1746 8.40257C19.3623 8.59007 19.4678 8.84444 19.4678 9.10971C19.4679 9.37498 19.3627 9.62943 19.1751 9.81707L12.1031 16.8891C12.0103 16.9819 11.9001 17.0555 11.7788 17.1056C11.6574 17.1557 11.5274 17.1813 11.3961 17.1811Z" fill="#2FAB73"/>
</svg>
