<svg width="35" height="35" viewBox="0 0 35 35" fill="none" xmlns="http://www.w3.org/2000/svg">
<path d="M17.7999 34.5998C27.0782 34.5998 34.5998 27.0782 34.5998 17.7999C34.5998 8.52153 27.0782 1 17.7999 1C8.5216 1 1 8.52153 1 17.7999C1 27.0782 8.5216 34.5998 17.7999 34.5998Z" fill="#F53838"/>
<path d="M17.8 1C8.5215 1 1 8.52153 1 17.8C1 27.0785 8.5215 34.6 17.8 34.6C27.0785 34.6 34.6 27.0785 34.6 17.8C34.6 8.52153 27.0785 1 17.8 1ZM21.7795 12.6095H19.2543C18.955 12.6095 18.6225 13.0032 18.6225 13.5265V15.35H21.7813L21.3035 17.9505H18.6225V25.7572H15.6423V17.9505H12.9385V15.35H15.6423V13.8205C15.6423 11.626 17.1648 9.84273 19.2543 9.84273H21.7795V12.6095Z" fill="white"/>
</svg>
