<svg width="35" height="35" viewBox="0 0 35 35" fill="none" xmlns="http://www.w3.org/2000/svg">
<path d="M17.8001 34.5998C27.0784 34.5998 34.6 27.0782 34.6 17.7999C34.6 8.52153 27.0784 1 17.8001 1C8.52184 1 1.00024 8.52153 1.00024 17.7999C1.00024 27.0782 8.52184 34.5998 17.8001 34.5998Z" fill="#F53838"/>
<path d="M23.05 17.8C23.05 19.1924 22.4967 20.5277 21.5122 21.5123C20.5276 22.4968 19.1923 23.05 17.8 23.05C16.4076 23.05 15.0721 22.4968 14.0875 21.5123C13.103 20.5277 12.55 19.1924 12.55 17.8C12.55 17.5007 12.5814 17.2085 12.6356 16.925H10.8V23.9197C10.8 24.4062 11.1936 24.8 11.6801 24.8H23.9214C24.1545 24.7995 24.3781 24.7066 24.5428 24.5415C24.7075 24.3765 24.8 24.1529 24.8 23.9197V16.925H22.9642C23.0185 17.2085 23.05 17.5007 23.05 17.8ZM17.8 21.3C18.2597 21.2999 18.7149 21.2092 19.1396 21.0331C19.5643 20.8571 19.9502 20.5991 20.2752 20.274C20.6002 19.9488 20.8579 19.5628 21.0337 19.138C21.2095 18.7132 21.3001 18.258 21.3 17.7982C21.2998 17.3385 21.2092 16.8833 21.0331 16.4586C20.8571 16.0339 20.599 15.648 20.2739 15.323C19.9487 14.998 19.5628 14.7402 19.138 14.5644C18.7132 14.3885 18.2578 14.2981 17.7981 14.2982C16.8696 14.2985 15.9792 14.6675 15.3229 15.3242C14.6665 15.9809 14.2979 16.8715 14.2981 17.8C14.2983 18.7285 14.6675 19.6188 15.3242 20.2752C15.9809 20.9316 16.8715 21.3002 17.8 21.3ZM22 14.125H24.0981C24.2375 14.125 24.3713 14.0697 24.4701 13.9713C24.5688 13.8729 24.6245 13.7394 24.625 13.6V11.5017C24.625 11.362 24.5695 11.228 24.4707 11.1292C24.3719 11.0305 24.2378 10.975 24.0981 10.975H22C21.8603 10.975 21.7262 11.0305 21.6274 11.1292C21.5286 11.228 21.4731 11.362 21.4731 11.5017V13.6C21.4749 13.8887 21.7112 14.125 22 14.125ZM17.8 1C13.3443 1 9.0712 2.76999 5.9206 5.92063C2.7699 9.07123 1 13.3443 1 17.8C1 22.2556 2.7699 26.5288 5.9206 29.6794C9.0712 32.83 13.3443 34.6 17.8 34.6C20.0062 34.6 22.1908 34.1654 24.229 33.3211C26.2673 32.4769 28.1192 31.2394 29.6793 29.6794C31.2393 28.1193 32.4768 26.2673 33.321 24.2291C34.1653 22.1908 34.5999 20.0062 34.5999 17.8C34.5999 15.5938 34.1653 13.4092 33.321 11.3709C32.4768 9.33263 31.2393 7.48063 29.6793 5.92063C28.1192 4.36058 26.2673 3.1231 24.229 2.27882C22.1908 1.43454 20.0062 1 17.8 1ZM26.55 24.6057C26.55 25.675 25.6749 26.55 24.6056 26.55H10.9942C9.925 26.55 9.05 25.675 9.05 24.6057V10.9942C9.05 9.92503 9.925 9.05003 10.9942 9.05003H24.6056C25.6749 9.05003 26.55 9.92503 26.55 10.9942V24.6057Z" fill="white"/>
</svg>
