<svg width="146" height="167" viewBox="0 0 146 167" fill="none" xmlns="http://www.w3.org/2000/svg">
<path fill-rule="evenodd" clip-rule="evenodd" d="M52.0248 40.589C52.6816 39.1632 53.4508 38.0557 53.9592 37.4717C53.9692 38.8491 53.7569 40.0846 53.4282 41.1584C54.4396 41.6463 55.4906 42.3294 56.4949 43.2721C55.721 43.2487 54.3856 43.0613 52.8931 42.5751C52.2051 44.0923 51.3353 45.1399 50.7651 45.6276C50.8038 44.3508 51.0724 43.1271 51.4498 42.0232C50.3832 41.5506 49.3025 40.9168 48.339 40.078C49.0842 39.9907 50.4438 40.0637 52.0248 40.589Z" fill="url(#paint0_linear_1_2954)"/>
<path fill-rule="evenodd" clip-rule="evenodd" d="M46.8334 26.3063C47.2705 25.3573 47.7825 24.6201 48.1209 24.2314C48.1276 25.1482 47.9863 25.9706 47.7675 26.6853C48.4407 27.01 49.1403 27.4648 49.8087 28.0923C49.2936 28.0767 48.4048 27.9519 47.4113 27.6283C46.9533 28.6383 46.3744 29.3356 45.9949 29.6602C46.0206 28.8103 46.1994 27.9957 46.4506 27.261C45.7407 26.9464 45.0213 26.5245 44.3799 25.9662C44.876 25.908 45.781 25.9566 46.8334 26.3063Z" fill="url(#paint1_linear_1_2954)"/>
<path fill-rule="evenodd" clip-rule="evenodd" d="M32.7826 12.1085C33.4394 10.6827 34.2086 9.5752 34.717 8.99124C34.727 10.3686 34.5147 11.6041 34.186 12.6778C35.1974 13.1657 36.2484 13.8489 37.2527 14.7916C36.4788 14.7682 35.1435 14.5807 33.6509 14.0946C32.9629 15.6118 32.0932 16.6594 31.5229 17.1471C31.5616 15.8703 31.8302 14.6466 32.2076 13.5427C31.141 13.0701 30.0603 12.4363 29.0968 11.5975C29.842 11.5102 31.2016 11.5832 32.7826 12.1085Z" fill="url(#paint2_linear_1_2954)"/>
<path fill-rule="evenodd" clip-rule="evenodd" d="M30.5564 44.0739C31.5226 41.9763 32.6544 40.3468 33.4023 39.4877C33.417 41.5141 33.1046 43.3318 32.621 44.9115C34.1091 45.6294 35.6554 46.6345 37.1329 48.0214C35.9944 47.9869 34.0297 47.7112 31.8338 46.996C30.8216 49.2282 29.542 50.7694 28.7031 51.4869C28.7599 49.6084 29.1552 47.808 29.7104 46.184C28.1412 45.4887 26.5512 44.5562 25.1337 43.3222C26.2301 43.1936 28.2304 43.301 30.5564 44.0739Z" fill="url(#paint3_linear_1_2954)"/>
<circle cx="36.3694" cy="29.7175" r="0.846528" transform="rotate(21.3865 36.3694 29.7175)" fill="#2F235A"/>
<circle cx="57.3296" cy="19.0735" r="0.846528" transform="rotate(21.3865 57.3296 19.0735)" fill="#FE9076"/>
<circle cx="17.0945" cy="23.698" r="0.846528" transform="rotate(21.3865 17.0945 23.698)" fill="#FFA400"/>
<circle cx="35.2725" cy="57.783" r="0.846528" transform="rotate(21.3865 35.2725 57.783)" fill="#23BB86"/>
<path d="M56.6865 15.0275C55.8629 11.882 52.8903 4.68815 47.5883 1.07662" stroke="#FE9076" stroke-width="0.736823" stroke-linecap="round"/>
<path d="M14.5961 20.2827C12.5468 17.7583 6.86817 12.4347 0.54788 11.3356" stroke="#FFA400" stroke-width="0.736823" stroke-linecap="round"/>
<path d="M31.6704 59.0132C29.8543 59.6755 25.2825 61.786 21.5242 64.9293" stroke="#23BB86" stroke-width="0.736823" stroke-linecap="round"/>
<path fill-rule="evenodd" clip-rule="evenodd" d="M93.9752 40.589C93.3184 39.1632 92.5492 38.0557 92.0408 37.4717C92.0308 38.8491 92.2431 40.0846 92.5718 41.1584C91.5604 41.6463 90.5094 42.3294 89.5051 43.2721C90.279 43.2487 91.6144 43.0613 93.1069 42.5751C93.7949 44.0923 94.6647 45.1399 95.2349 45.6276C95.1962 44.3508 94.9276 43.1271 94.5502 42.0232C95.6168 41.5506 96.6975 40.9168 97.661 40.078C96.9158 39.9907 95.5562 40.0637 93.9752 40.589Z" fill="url(#paint4_linear_1_2954)"/>
<path fill-rule="evenodd" clip-rule="evenodd" d="M99.1666 26.3063C98.7295 25.3573 98.2175 24.6201 97.8791 24.2314C97.8724 25.1482 98.0137 25.9706 98.2325 26.6853C97.5593 27.01 96.8597 27.4648 96.1913 28.0923C96.7064 28.0767 97.5952 27.9519 98.5887 27.6283C99.0467 28.6383 99.6256 29.3356 100.005 29.6602C99.9794 28.8103 99.8006 27.9957 99.5494 27.261C100.259 26.9464 100.979 26.5245 101.62 25.9662C101.124 25.908 100.219 25.9566 99.1666 26.3063Z" fill="url(#paint5_linear_1_2954)"/>
<path fill-rule="evenodd" clip-rule="evenodd" d="M113.217 12.1085C112.561 10.6827 111.791 9.5752 111.283 8.99124C111.273 10.3686 111.485 11.6041 111.814 12.6778C110.803 13.1657 109.752 13.8489 108.747 14.7916C109.521 14.7682 110.857 14.5807 112.349 14.0946C113.037 15.6118 113.907 16.6594 114.477 17.1471C114.438 15.8703 114.17 14.6466 113.792 13.5427C114.859 13.0701 115.94 12.4363 116.903 11.5975C116.158 11.5102 114.798 11.5832 113.217 12.1085Z" fill="url(#paint6_linear_1_2954)"/>
<path fill-rule="evenodd" clip-rule="evenodd" d="M115.444 44.0739C114.477 41.9763 113.346 40.3468 112.598 39.4877C112.583 41.5141 112.895 43.3318 113.379 44.9115C111.891 45.6294 110.345 46.6345 108.867 48.0214C110.006 47.9869 111.97 47.7112 114.166 46.996C115.178 49.2282 116.458 50.7694 117.297 51.4869C117.24 49.6084 116.845 47.808 116.29 46.184C117.859 45.4887 119.449 44.5562 120.866 43.3222C119.77 43.1936 117.77 43.301 115.444 44.0739Z" fill="url(#paint7_linear_1_2954)"/>
<circle cx="0.846528" cy="0.846528" r="0.846528" transform="matrix(-0.931142 0.364658 0.364658 0.931142 110.11 28.6206)" fill="#2F235A"/>
<circle cx="0.846528" cy="0.846528" r="0.846528" transform="matrix(-0.931142 0.364658 0.364658 0.931142 89.1499 17.9766)" fill="#FE9076"/>
<circle cx="0.846528" cy="0.846528" r="0.846528" transform="matrix(-0.931142 0.364658 0.364658 0.931142 129.385 22.6011)" fill="#FFA400"/>
<circle cx="0.846528" cy="0.846528" r="0.846528" transform="matrix(-0.931142 0.364658 0.364658 0.931142 111.207 56.686)" fill="#23BB86"/>
<path d="M89.3135 15.0275C90.1371 11.882 93.1097 4.68815 98.4117 1.07662" stroke="#FE9076" stroke-width="0.736823" stroke-linecap="round"/>
<path d="M131.404 20.2827C133.453 17.7583 139.132 12.4347 145.452 11.3356" stroke="#FFA400" stroke-width="0.736823" stroke-linecap="round"/>
<path d="M114.33 59.0132C116.146 59.6755 120.717 61.786 124.476 64.9293" stroke="#23BB86" stroke-width="0.736823" stroke-linecap="round"/>
<rect x="26.8154" y="104.341" width="89.8505" height="62.1103" fill="url(#paint8_linear_1_2954)"/>
<mask id="mask0_1_2954" style="mask-type:alpha" maskUnits="userSpaceOnUse" x="26" y="104" width="91" height="63">
<rect x="26.8154" y="104.341" width="89.8505" height="62.1103" fill="#C4C4C4"/>
</mask>
<g mask="url(#mask0_1_2954)">
<path d="M31.0669 102.759L92.2489 102.759L78.4203 126.771L17.2383 126.771L31.0669 102.759Z" fill="black" fill-opacity="0.07"/>
<rect x="87.9172" y="104.341" width="89.8505" height="62.1103" fill="url(#paint9_linear_1_2954)"/>
</g>
<path d="M26.736 104.341L87.918 104.341L76.0995 124.063L14.9175 124.063L26.736 104.341Z" fill="url(#paint10_linear_1_2954)"/>
<mask id="mask1_1_2954" style="mask-type:alpha" maskUnits="userSpaceOnUse" x="87" y="104" width="30" height="63">
<rect x="87.918" y="104.341" width="28.7479" height="62.1103" fill="#C4C4C4"/>
</mask>
<g mask="url(#mask1_1_2954)">
<path d="M113.166 104.238L84.3731 104.238L97.9024 126.944L126.695 126.944L113.166 104.238Z" fill="black" fill-opacity="0.07"/>
</g>
<path d="M116.711 104.341L87.9179 104.341L99.7364 124.063L128.529 124.063L116.711 104.341Z" fill="url(#paint11_linear_1_2954)"/>
<circle cx="56.7433" cy="88.5211" r="8.49082" fill="url(#paint12_linear_1_2954)"/>
<circle cx="89.3727" cy="67.5875" r="8.20473" fill="url(#paint13_linear_1_2954)"/>
<circle cx="58.6178" cy="57.004" r="6.61631" fill="url(#paint14_linear_1_2954)"/>
<circle cx="76.9911" cy="41.8949" r="5.98519" fill="url(#paint15_linear_1_2954)"/>
<circle cx="65.2342" cy="25.2718" r="4.6365" fill="url(#paint16_linear_1_2954)"/>
<circle cx="73.201" cy="65.9381" r="1.65" fill="#FFA800" fill-opacity="0.23"/>
<circle cx="100.642" cy="52.0377" r="1.65" fill="#FFA800" fill-opacity="0.23"/>
<circle cx="102.292" cy="25.2721" r="1.65" fill="#FFA800" fill-opacity="0.23"/>
<circle cx="46.6026" cy="28.2584" r="1.65" fill="#FFA800" fill-opacity="0.23"/>
<circle cx="80.2008" cy="92.1852" r="1.65" fill="#FFA800" fill-opacity="0.23"/>
<circle cx="38.7965" cy="62.6378" r="1.65" fill="#FFA800" fill-opacity="0.23"/>
<path d="M116.878 104.635H26.7442L12.9019 19.2866H133.5L116.878 104.635Z" fill="url(#paint17_linear_1_2954)"/>
<defs>
<linearGradient id="paint0_linear_1_2954" x1="53.7093" y1="38.3751" x2="50.7103" y2="46.0329" gradientUnits="userSpaceOnUse">
<stop stop-color="#FFE89E"/>
<stop offset="1" stop-color="#FFBF1A"/>
</linearGradient>
<linearGradient id="paint1_linear_1_2954" x1="47.9546" y1="24.8327" x2="45.9583" y2="29.93" gradientUnits="userSpaceOnUse">
<stop stop-color="#FFE89E"/>
<stop offset="1" stop-color="#FFBF1A"/>
</linearGradient>
<linearGradient id="paint2_linear_1_2954" x1="34.4671" y1="9.8946" x2="31.4681" y2="17.5525" gradientUnits="userSpaceOnUse">
<stop stop-color="#FFE89E"/>
<stop offset="1" stop-color="#FFBF1A"/>
</linearGradient>
<linearGradient id="paint3_linear_1_2954" x1="33.0346" y1="40.8167" x2="28.6224" y2="52.0832" gradientUnits="userSpaceOnUse">
<stop stop-color="#FFE89E"/>
<stop offset="1" stop-color="#FFBF1A"/>
</linearGradient>
<linearGradient id="paint4_linear_1_2954" x1="92.2907" y1="38.3751" x2="95.2897" y2="46.0329" gradientUnits="userSpaceOnUse">
<stop stop-color="#FFE89E"/>
<stop offset="1" stop-color="#FFBF1A"/>
</linearGradient>
<linearGradient id="paint5_linear_1_2954" x1="98.0454" y1="24.8327" x2="100.042" y2="29.93" gradientUnits="userSpaceOnUse">
<stop stop-color="#FFE89E"/>
<stop offset="1" stop-color="#FFBF1A"/>
</linearGradient>
<linearGradient id="paint6_linear_1_2954" x1="111.533" y1="9.8946" x2="114.532" y2="17.5525" gradientUnits="userSpaceOnUse">
<stop stop-color="#FFE89E"/>
<stop offset="1" stop-color="#FFBF1A"/>
</linearGradient>
<linearGradient id="paint7_linear_1_2954" x1="112.965" y1="40.8167" x2="117.378" y2="52.0832" gradientUnits="userSpaceOnUse">
<stop stop-color="#FFE89E"/>
<stop offset="1" stop-color="#FFBF1A"/>
</linearGradient>
<linearGradient id="paint8_linear_1_2954" x1="56.8297" y1="92.8417" x2="21.0194" y2="191.473" gradientUnits="userSpaceOnUse">
<stop stop-color="#FFD481"/>
<stop offset="1" stop-color="#FA620C"/>
</linearGradient>
<linearGradient id="paint9_linear_1_2954" x1="42.1451" y1="100.401" x2="150.825" y2="216.541" gradientUnits="userSpaceOnUse">
<stop stop-color="#FFD481"/>
<stop offset="0.83311" stop-color="#FA620C"/>
</linearGradient>
<linearGradient id="paint10_linear_1_2954" x1="27.9951" y1="97.2919" x2="25.0874" y2="139.315" gradientUnits="userSpaceOnUse">
<stop stop-color="#FFD481"/>
<stop offset="1" stop-color="#FA620C"/>
</linearGradient>
<linearGradient id="paint11_linear_1_2954" x1="121.254" y1="97.2919" x2="126.426" y2="138.872" gradientUnits="userSpaceOnUse">
<stop stop-color="#FFD481"/>
<stop offset="1" stop-color="#FA620C"/>
</linearGradient>
<linearGradient id="paint12_linear_1_2954" x1="57.3862" y1="77.228" x2="55.7711" y2="100.147" gradientUnits="userSpaceOnUse">
<stop stop-color="#FF9F81"/>
<stop offset="1" stop-color="#F53838"/>
</linearGradient>
<linearGradient id="paint13_linear_1_2954" x1="89.994" y1="56.675" x2="88.4333" y2="78.8215" gradientUnits="userSpaceOnUse">
<stop stop-color="#FF9F81"/>
<stop offset="1" stop-color="#F53838"/>
</linearGradient>
<linearGradient id="paint14_linear_1_2954" x1="59.1188" y1="48.2041" x2="57.8603" y2="66.0631" gradientUnits="userSpaceOnUse">
<stop stop-color="#FF9F81"/>
<stop offset="1" stop-color="#F53838"/>
</linearGradient>
<linearGradient id="paint15_linear_1_2954" x1="77.4443" y1="33.9344" x2="76.3058" y2="50.0898" gradientUnits="userSpaceOnUse">
<stop stop-color="#FF9F81"/>
<stop offset="1" stop-color="#F53838"/>
</linearGradient>
<linearGradient id="paint16_linear_1_2954" x1="65.5852" y1="19.1051" x2="64.7033" y2="31.6201" gradientUnits="userSpaceOnUse">
<stop stop-color="#FF9F81"/>
<stop offset="1" stop-color="#F53838"/>
</linearGradient>
<linearGradient id="paint17_linear_1_2954" x1="72.2099" y1="19.2866" x2="72.2099" y2="200.611" gradientUnits="userSpaceOnUse">
<stop stop-color="white" stop-opacity="0"/>
<stop offset="1" stop-color="#FE9277"/>
</linearGradient>
</defs>
</svg>
