<svg width="35" height="34" viewBox="0 0 35 34" fill="none" xmlns="http://www.w3.org/2000/svg">
<path d="M17.7999 33.5998C27.0782 33.5998 34.5998 26.0782 34.5998 16.7999C34.5998 7.52153 27.0782 0 17.7999 0C8.5216 0 1 7.52153 1 16.7999C1 26.0782 8.5216 33.5998 17.7999 33.5998Z" fill="#F53838"/>
<path d="M17.8 0C8.5215 0 1 7.52153 1 16.8C1 26.0785 8.5215 33.6 17.8 33.6C27.0785 33.6 34.6 26.0785 34.6 16.8C34.6 7.52153 27.0785 0 17.8 0ZM24.6338 13.762C24.6408 13.9055 24.6425 14.049 24.6425 14.189C24.6425 18.564 21.3158 23.6057 15.2293 23.6057C13.4308 23.6087 11.6697 23.0922 10.1577 22.1182C10.415 22.1497 10.6792 22.162 10.947 22.162C12.4975 22.162 13.9238 21.6352 15.056 20.7462C14.366 20.7327 13.6974 20.5042 13.1434 20.0926C12.5895 19.6811 12.1777 19.1069 11.9655 18.4502C12.461 18.5444 12.9715 18.5247 13.4582 18.3925C12.7093 18.241 12.0358 17.8352 11.552 17.2439C11.0681 16.6525 10.8037 15.912 10.8035 15.148V15.1077C11.2497 15.3545 11.7607 15.505 12.3032 15.5225C11.6011 15.0551 11.1041 14.3371 10.9138 13.5155C10.7235 12.6938 10.8543 11.8304 11.2795 11.102C12.1107 12.124 13.1472 12.96 14.322 13.556C15.4968 14.152 16.7836 14.4946 18.0993 14.5617C17.932 13.8518 18.004 13.1064 18.304 12.4416C18.6041 11.7768 19.1153 11.2297 19.7584 10.8854C20.4014 10.5412 21.1402 10.419 21.8598 10.5379C22.5795 10.6568 23.2396 11.0101 23.7378 11.543C24.4783 11.3965 25.1885 11.1248 25.8378 10.7397C25.5909 11.5065 25.0742 12.1575 24.3835 12.572C25.0395 12.493 25.68 12.3166 26.284 12.0487C25.8404 12.7135 25.2815 13.2937 24.6338 13.762Z" fill="white"/>
</svg>
